<svg xmlns="http://www.w3.org/2000/svg" fill="#D1D5DB" viewBox="0 0 64 64" id="http">
  <g>
    <path d="M7 62h50a5 5 0 0 0 5-5V7a5 5 0 0 0-5-5H7a5 5 0 0 0-5 5v50a5 5 0 0 0 5 5ZM45 8h10a1 1 0 0 1 0 2H45a1 1 0 0 1 0-2ZM19 8a1 1 0 1 1-1 1 1 1 0 0 1 1-1Zm-5 0a1 1 0 1 1-1 1 1 1 0 0 1 1-1ZM9 8a1 1 0 1 1-1 1 1 1 0 0 1 1-1Zm-5 8h56v41a3.009 3.009 0 0 1-3 3H7a3.009 3.009 0 0 1-3-3Z"></path>
    <path d="M12 47h2.17a19.95 19.95 0 0 0 35.66 0H52a5 5 0 0 0 5-5v-8a5 5 0 0 0-5-5h-2.17a19.95 19.95 0 0 0-35.66 0H12a5 5 0 0 0-5 5v8a5 5 0 0 0 5 5Zm21 8.87V52h4.59c-1.32 2.11-2.91 3.48-4.59 3.87ZM33 50v-3h6.75a22.339 22.339 0 0 1-1.1 3Zm4.86 5a15.6 15.6 0 0 0 2.04-3h3.36a18.22 18.22 0 0 1-5.4 3Zm3.64-16a1 1 0 1 1-1 1 1 1 0 0 1 1-1Zm-1-3a1 1 0 1 1 1 1 1 1 0 0 1-1-1Zm4.88 14h-4.55a26.363 26.363 0 0 0 1-3h5.73a18.121 18.121 0 0 1-2.18 3Zm3.67-9.32 2-6a1 1 0 1 1 1.9.64l-2 6a1 1 0 0 1-1.9-.64Zm-.73-6.63a1.011 1.011 0 0 1 .63 1.27l-2 6a1 1 0 0 1-1.9-.64l2-6a1 1 0 0 1 1.27-.63ZM47.56 29h-5.73a26.363 26.363 0 0 0-1-3h4.55a18.121 18.121 0 0 1 2.18 3Zm-4.3-5H39.9a15.6 15.6 0 0 0-2.04-3 18.22 18.22 0 0 1 5.4 3ZM33 20.13c1.68.39 3.27 1.76 4.59 3.87H33ZM33 26h5.65a22.339 22.339 0 0 1 1.1 3H33Zm-.8 9a1 1 0 0 1 1-1h2.1a2.5 2.5 0 0 1 0 5h-1.1v2a1 1 0 0 1-2 0ZM16.44 47h5.73a26.363 26.363 0 0 0 1 3h-4.55a18.121 18.121 0 0 1-2.18-3Zm2.76-11a1 1 0 0 1 0-2h3.6a1 1 0 0 1 0 2H22v5a1 1 0 0 1-2 0v-5Zm1.54 16h3.36a15.6 15.6 0 0 0 2.04 3 18.22 18.22 0 0 1-5.4-3ZM31 55.87c-1.68-.39-3.27-1.76-4.59-3.87H31ZM31 50h-5.65a22.339 22.339 0 0 1-1.1-3H31Zm-4.8-14a1 1 0 0 1 0-2h3.6a1 1 0 0 1 0 2H29v5a1 1 0 0 1-2 0v-5Zm4.8-7h-6.75a22.339 22.339 0 0 1 1.1-3H31Zm0-8.87V24h-4.59c1.32-2.11 2.91-3.48 4.59-3.87Zm-4.86.87a15.6 15.6 0 0 0-2.04 3h-3.36a18.22 18.22 0 0 1 5.4-3Zm-7.52 5h4.55a26.363 26.363 0 0 0-1 3h-5.73a18.121 18.121 0 0 1 2.18-3Zm-7.42 9a1 1 0 0 1 2 0v2h1.6v-2a1 1 0 0 1 2 0v6a1 1 0 0 1-2 0v-2h-1.6v2a1 1 0 0 1-2 0Z"></path>
    <path d="M35.8 36.5a.5.5 0 0 0-.5-.5h-1.1v1h1.1a.5.5 0 0 0 .5-.5Z"></path>
  </g>
</svg>
