<svg xmlns="http://www.w3.org/2000/svg" xml:space="preserve" id="load-balance" x="0" y="0" version="1.1" viewBox="0 0 24 24">
  <path fill="#303C42" d="M20.325 13c-.677-3.605-3.235-4.109-5.18-4.484C13.359 8.17 12.5 7.94 12.5 6.5h-1c0 1.44-.859 1.67-2.645 2.016-1.945.375-4.503.88-5.18 4.484H1.5L4 16l2.5-3H4.691c.593-2.767 2.497-3.144 4.353-3.502.864-.167 1.78-.356 2.456-.84V13h-2l2.5 3 2.5-3h-2V8.658c.675.484 1.592.673 2.456.84 1.856.358 3.76.735 4.353 3.502H17.5l2.5 3 2.5-3h-2.175z"></path>
  <path fill="#303C42" d="M20 7H4a1 1 0 0 1-1-1V2a1 1 0 0 1 1-1h16a1 1 0 0 1 1 1v4a1 1 0 0 1-1 1z"></path>
  <path fill="#FFF" d="M20 1H4a1 1 0 0 0-1 1v.25a1 1 0 0 1 1-1h16a1 1 0 0 1 1 1V2a1 1 0 0 0-1-1z" opacity=".1"></path>
  <path d="M20 6.75H4a1 1 0 0 1-1-1V6a1 1 0 0 0 1 1h16a1 1 0 0 0 1-1v-.25a1 1 0 0 1-1 1z" opacity=".2"></path>
  <circle id="XMLID_1332_" cx="18.5" cy="4" r=".5" fill="#69B342"></circle>
  <circle id="XMLID_1315_" cx="16.5" cy="4" r=".5" fill="#69B342"></circle>
  <circle id="XMLID_1313_" cx="14.5" cy="4" r=".5" fill="#69B342"></circle>
  <circle cx="5.5" cy="4" r="1" fill="#C6CDD1"></circle>
  <linearGradient id="SVGID_1_" x1="4.868" x2="5.987" y1="3.368" y2="4.487" gradientUnits="userSpaceOnUse">
    <stop offset="0" stop-opacity=".1"></stop>
    <stop offset="1" stop-opacity="0"></stop>
  </linearGradient>
  <circle cx="5.5" cy="4" r="1" fill="url(#SVGID_1_)"></circle>
  <path fill="#039BE5" d="M9 17h6v6H9zM1 17h6v6H1z"></path>
  <path fill="#FFF" d="M1 17h6v.25H1z" opacity=".2"></path>
  <path d="M1 22.75h6V23H1z" opacity=".1"></path>
  <path fill="#039BE5" d="M17 17h6v6h-6z"></path>
  <path fill="#FFF" d="M9 17h6v.25H9z" opacity=".2"></path>
  <path d="M9 22.75h6V23H9z" opacity=".1"></path>
  <path fill="#FFF" d="M17 17h6v.25h-6z" opacity=".2"></path>
  <path d="M17 22.75h6V23h-6z" opacity=".1"></path>
  <linearGradient id="SVGID_2_" x1=".444" x2="25.001" y1="7.259" y2="18.71" gradientUnits="userSpaceOnUse">
    <stop offset="0" stop-color="#FFF" stop-opacity=".2"></stop>
    <stop offset="1" stop-color="#FFF" stop-opacity="0"></stop>
  </linearGradient>
  <path fill="url(#SVGID_2_)" d="M1 23h6v-6H1v6zM8.855 8.516c-1.945.375-4.503.88-5.18 4.484H1.5L4 16l2.5-3H4.691c.593-2.767 2.497-3.144 4.353-3.502.864-.167 1.78-.356 2.456-.84V13h-2l2.5 3 2.5-3h-2V8.658c.675.484 1.592.673 2.456.84 1.856.358 3.76.735 4.353 3.502H17.5l2.5 3 2.5-3h-2.175c-.677-3.605-3.235-4.109-5.18-4.484-1.555-.3-2.406-.516-2.6-1.516H20a1 1 0 0 0 1-1V2a1 1 0 0 0-1-1H4a1 1 0 0 0-1 1v4a1 1 0 0 0 1 1h7.455c-.194 1-1.045 1.215-2.6 1.516zM17 17v6h6v-6h-6zm-8 6h6v-6H9v6z"></path>
</svg>
